<?xml version="1.0" standalone="no"?>
<!DOCTYPE svg PUBLIC "-//W3C//DTD SVG 20010904//EN"
 "http://www.w3.org/TR/2001/REC-SVG-20010904/DTD/svg10.dtd">
<svg version="1.0" xmlns="http://www.w3.org/2000/svg"
 width="1080.000000pt" height="1080.000000pt" viewBox="0 0 1080.000000 1080.000000"
 preserveAspectRatio="xMidYMid meet">
<metadata>
Created by potrace 1.14, written by Peter Selinger 2001-2017
</metadata>
<g transform="translate(0.000000,1080.000000) scale(0.100000,-0.100000)"
fill="#000000" stroke="none">
<path d="M5279 10306 c-2 -2 -38 -6 -79 -9 -376 -30 -763 -184 -1082 -429
-107 -83 -268 -241 -350 -344 -201 -253 -364 -600 -414 -884 -3 -14 -7 -32 -9
-40 -2 -8 -7 -37 -10 -65 -4 -27 -10 -77 -15 -110 -8 -62 -6 -410 3 -455 3
-14 8 -47 12 -75 3 -27 11 -70 16 -95 6 -25 12 -53 14 -63 13 -63 52 -187 87
-277 116 -298 317 -589 554 -801 34 -30 44 -48 60 -110 10 -41 27 -82 38 -93
18 -18 18 -19 -10 -41 -16 -13 -45 -36 -64 -53 l-34 -30 -31 54 c-81 145 -216
224 -383 225 -320 2 -524 -333 -371 -607 60 -107 178 -183 297 -192 l68 -4
-58 -117 c-55 -112 -140 -349 -152 -424 -3 -20 -10 -56 -15 -79 -28 -126 -36
-213 -36 -403 0 -158 8 -293 19 -326 3 -8 8 -32 11 -53 3 -22 7 -42 10 -44 7
-7 984 -6 991 0 3 3 -6 41 -20 84 -14 43 -26 84 -26 91 0 9 18 6 63 -11 56
-21 119 -38 187 -51 33 -7 189 -7 220 0 14 2 36 7 50 10 14 3 36 7 49 10 13 2
26 6 28 9 2 2 23 -16 45 -40 75 -82 237 -139 357 -127 37 3 114 4 211 1 138
-4 252 36 339 117 53 50 49 49 126 28 11 -3 76 -7 145 -9 150 -4 215 9 363 71
23 10 22 -7 -8 -100 -14 -43 -23 -80 -20 -83 3 -4 928 -7 981 -3 12 1 21 34
30 116 3 27 10 70 14 95 10 51 6 399 -5 475 -6 45 -27 158 -39 210 -8 39 -40
152 -49 175 -3 8 -11 32 -17 54 -17 54 -96 232 -125 282 l-24 41 68 5 c198 14
356 191 352 393 -5 228 -189 408 -416 406 -76 -1 -99 -4 -152 -22 -94 -31
-193 -115 -239 -204 l-28 -53 -63 51 c-63 51 -75 67 -49 67 8 0 18 15 22 33 4
17 9 37 10 42 2 6 8 27 13 49 7 30 35 64 125 155 188 190 306 351 411 566 71
146 135 327 164 467 19 92 23 115 38 213 9 65 10 392 1 475 -9 79 -33 213 -47
258 -5 18 -10 36 -11 40 -10 67 -88 279 -147 397 -177 355 -467 669 -804 870
-133 79 -383 186 -503 216 -23 5 -48 11 -56 14 -57 15 -169 36 -222 41 -35 3
-67 8 -71 11 -9 5 -332 14 -338 9z m350 -986 c311 -65 602 -279 756 -555 41
-75 46 -92 31 -107 -19 -19 -181 -166 -205 -187 -12 -10 -66 -60 -122 -112
-102 -94 -138 -124 -143 -118 -2 2 -124 246 -272 541 -148 296 -271 538 -274
538 -3 0 -126 -242 -274 -538 -148 -295 -270 -539 -272 -541 -6 -7 -77 54
-314 274 -35 33 -69 65 -76 70 -82 72 -93 86 -85 108 48 125 222 337 356 433
163 117 360 193 541 210 38 4 70 8 72 9 10 9 202 -9 281 -25z m-1304 -822 c-7
-70 -10 -96 -20 -215 -4 -45 -8 -90 -10 -100 -2 -10 -4 -36 -5 -58 -2 -35 -3
-37 -10 -15 -8 27 -5 214 4 270 11 63 39 180 44 180 2 0 1 -28 -3 -62z m2186
-93 c13 -79 18 -254 9 -300 -4 -21 -8 -3 -13 60 -4 50 -10 107 -13 129 -4 38
-8 80 -19 206 l-5 65 15 -45 c8 -24 19 -76 26 -115z m-2855 -2020 c23 -9 49
-24 59 -35 17 -19 16 -19 -25 1 -57 28 -137 27 -196 -1 -160 -78 -151 -312 15
-360 30 -8 31 -7 41 33 6 23 13 50 16 60 4 12 0 17 -15 17 -22 0 -51 35 -51
61 0 10 12 32 26 49 23 26 32 31 61 27 68 -9 120 -73 109 -133 -21 -114 -148
-163 -252 -97 -61 39 -96 100 -96 171 -1 71 18 118 68 166 63 61 149 76 240
41z m3665 1 c68 -29 121 -98 133 -174 11 -78 -35 -171 -104 -210 -91 -52 -185
-27 -228 60 -22 44 -23 51 -10 90 14 47 64 88 105 88 29 0 83 -50 83 -77 0
-24 -28 -63 -45 -63 -24 0 -25 -16 -7 -68 l17 -50 38 13 c165 57 153 299 -18
365 -46 18 -119 13 -172 -10 l-48 -21 21 22 c29 29 117 57 163 53 21 -2 53
-10 72 -18z m-2713 -983 c77 -333 92 -395 132 -513 23 -69 44 -130 46 -137 15
-36 -192 -38 -296 -3 -36 12 -96 43 -135 69 l-70 48 3 63 c1 35 7 81 13 104 6
22 12 48 14 56 11 57 84 218 133 295 38 58 114 155 122 155 4 0 21 -62 38
-137z m1658 99 c129 -157 228 -380 249 -560 7 -62 7 -63 -26 -92 -50 -43 -157
-97 -227 -114 -67 -15 -228 -14 -244 2 -7 7 -6 17 1 30 32 59 91 278 172 630
18 78 35 142 38 142 3 0 20 -17 37 -38z"/>
<path d="M2571 4315 l-34 -34 -2 -570 -3 -571 67 -61 c62 -59 243 -208 307
-256 16 -12 49 -36 74 -55 62 -46 249 -168 269 -176 9 -3 18 -9 21 -12 6 -9
208 -120 283 -156 l57 -28 36 36 c32 33 35 43 39 105 7 120 17 337 19 385 1
25 5 50 10 55 7 7 5 -95 -10 -377 -3 -63 -7 -144 -8 -179 l-3 -63 46 -20 c25
-11 59 -25 76 -32 16 -7 50 -21 75 -31 25 -9 59 -23 76 -30 18 -8 47 -17 66
-20 31 -6 36 -3 66 39 36 50 35 36 47 380 2 76 7 141 10 144 3 3 5 -8 6 -24 0
-16 2 -36 3 -44 2 -8 6 -42 10 -75 4 -33 8 -73 11 -90 2 -16 6 -52 9 -80 4
-27 8 -61 10 -75 2 -14 7 -47 10 -75 3 -27 9 -75 12 -105 7 -59 8 -63 27 -66
7 -2 39 -10 72 -20 33 -9 68 -18 78 -20 9 -2 25 -6 35 -9 31 -9 256 -53 287
-57 27 -3 33 2 67 62 20 36 39 83 43 105 3 22 7 47 10 55 2 8 6 33 10 55 3 22
7 47 10 55 2 8 6 33 10 55 3 22 12 76 20 120 19 106 23 130 31 182 13 90 20
46 17 -115 -9 -491 -9 -602 1 -603 6 0 22 -2 36 -4 139 -19 519 -25 709 -12
81 6 107 11 118 25 12 16 13 16 7 -1 -7 -19 12 -19 146 3 30 5 80 12 110 15
30 4 57 8 60 10 4 2 22 7 41 10 59 10 181 36 256 56 100 26 105 26 92 -8 -6
-16 -13 -68 -15 -118 -6 -140 17 -203 141 -395 l65 -100 -53 -33 c-65 -40
-109 -62 -167 -82 -56 -20 -169 -54 -195 -59 -11 -2 -38 -7 -60 -11 -22 -4
-49 -9 -60 -12 -116 -22 -459 -22 -600 2 -44 7 -96 16 -125 22 -208 37 -456
141 -651 272 -181 122 -270 224 -328 376 -33 87 -35 89 -77 97 -94 17 -172 30
-207 34 -118 15 -255 70 -526 213 -63 33 -117 58 -121 56 -18 -11 4 -212 36
-327 131 -471 307 -772 619 -1057 261 -237 648 -424 990 -478 17 -2 41 -6 55
-8 136 -24 424 -24 545 -1 11 2 40 7 65 11 68 11 68 11 175 38 267 68 573 227
775 402 57 49 182 175 240 242 l55 63 75 -20 c238 -63 365 -40 562 101 76 54
82 61 156 190 43 74 81 141 85 149 4 8 17 31 28 50 12 19 64 109 116 200 53
91 98 169 101 174 4 8 -84 3 -175 -10 -84 -11 -102 -13 -158 -19 -33 -4 -69
-9 -79 -12 -17 -5 -18 -1 -12 53 3 33 8 70 11 84 11 64 47 292 56 355 12 82
14 95 29 196 l12 77 112 90 c186 152 198 164 240 262 13 30 14 110 11 548 -3
472 -4 514 -21 540 -48 73 -74 80 -269 76 -88 -2 -239 -4 -337 -6 l-176 -3
-18 -32 c-20 -38 -28 -40 -46 -15 -27 39 -64 45 -249 43 l-57 -1 -29 -57 c-21
-41 -29 -70 -27 -98 1 -22 5 -110 9 -195 3 -85 8 -176 10 -202 2 -27 -1 -48
-6 -48 -5 0 -9 26 -10 58 0 31 -2 84 -4 117 -13 244 -18 355 -17 388 l0 38
-182 -3 -181 -3 -19 -37 c-21 -44 -30 -47 -51 -15 -29 44 -53 48 -309 47 -133
0 -260 -2 -284 -4 -50 -4 -85 -32 -114 -91 -33 -67 -44 -85 -51 -78 -4 3 -7
13 -7 20 0 26 -38 98 -65 123 l-27 25 -281 3 c-204 2 -289 0 -310 -9 -28 -12
-77 -77 -106 -144 l-13 -30 -18 51 c-23 67 -47 102 -80 119 -31 16 -246 23
-260 9 -15 -18 -62 -109 -65 -129 -2 -11 -7 -139 -10 -285 -4 -146 -8 -305
-10 -355 -2 -49 -4 -150 -5 -222 -1 -73 -6 -133 -11 -133 -9 0 -7 182 7 610 4
124 7 292 8 375 l1 149 -112 -1 c-62 0 -126 -6 -142 -12 -29 -13 -58 -46 -98
-115 -22 -39 -23 -40 -30 -17 -11 44 -49 104 -76 125 -25 19 -45 20 -314 23
l-288 4 -37 -31 c-21 -17 -38 -38 -38 -46 0 -8 -4 -14 -10 -14 -5 0 -16 -12
-24 -27 l-14 -28 -11 30 c-17 48 -38 79 -65 99 -28 22 -41 23 -451 30 l-260 5
-34 -34z m1183 -617 c-1 -35 -2 -82 -3 -105 -1 -24 -5 -43 -10 -43 -5 0 -7 19
-5 43 1 23 3 70 3 105 1 34 5 62 9 62 4 0 7 -28 6 -62z m2488 -133 l3 -100 50
0 c28 1 79 4 115 8 36 3 92 9 125 13 33 3 66 10 72 16 7 6 13 9 14 7 0 -2 3
-65 5 -139 l6 -136 -29 -2 c-15 -1 -50 -6 -78 -12 -27 -5 -70 -12 -95 -15 -89
-11 -121 -17 -116 -22 3 -3 -3 -18 -13 -32 -34 -51 -45 -94 -43 -173 1 -46 -2
-78 -8 -78 -6 0 -10 28 -11 63 0 59 -2 136 -13 546 -3 99 -1 170 4 165 5 -5
10 -54 12 -109z m-833 -315 c1 -278 -2 -410 -9 -410 -7 0 -10 129 -9 403 2
365 3 417 13 417 2 0 4 -184 5 -410z m2027 319 c2 -46 1 -79 -4 -73 -4 5 -18
21 -31 36 l-24 28 23 50 c13 27 25 48 27 46 2 -2 6 -41 9 -87z m-4499 -161
c-3 -7 -5 -2 -5 12 0 14 2 19 5 13 2 -7 2 -19 0 -25z m4930 0 c-3 -7 -5 -2 -5
12 0 14 2 19 5 13 2 -7 2 -19 0 -25z m-3300 -250 c2 -17 0 -19 -7 -8 -5 8 -6
18 -4 22 8 12 10 10 11 -14z m2521 -65 c1 -43 4 -106 7 -140 2 -34 1 -64 -4
-67 -4 -3 -8 0 -8 7 -12 181 -12 277 0 277 1 0 3 -35 5 -77z"/>
</g>
</svg>
